<mxfile host="app.diagrams.net" agent="Mozilla/5.0 (Windows NT 10.0; Win64; x64) AppleWebKit/537.36 (KHTML, like Gecko) Chrome/133.0.0.0 Safari/537.36" version="26.0.16">
  <diagram name="Página-1" id="oEyrghPlkmVD-nt9A1lJ">
    <mxGraphModel dx="1434" dy="772" grid="1" gridSize="10" guides="1" tooltips="1" connect="1" arrows="1" fold="1" page="1" pageScale="1" pageWidth="827" pageHeight="1169" math="0" shadow="0">
      <root>
        <mxCell id="0" />
        <mxCell id="1" parent="0" />
        <mxCell id="iBEGzX39Ltn6iugaxpXB-9" style="edgeStyle=orthogonalEdgeStyle;rounded=0;orthogonalLoop=1;jettySize=auto;html=1;" edge="1" parent="1" source="iBEGzX39Ltn6iugaxpXB-7">
          <mxGeometry relative="1" as="geometry">
            <mxPoint x="300" y="270" as="targetPoint" />
          </mxGeometry>
        </mxCell>
        <mxCell id="iBEGzX39Ltn6iugaxpXB-11" style="edgeStyle=orthogonalEdgeStyle;rounded=0;orthogonalLoop=1;jettySize=auto;html=1;exitX=1;exitY=1;exitDx=0;exitDy=0;exitPerimeter=0;" edge="1" parent="1" source="iBEGzX39Ltn6iugaxpXB-7">
          <mxGeometry relative="1" as="geometry">
            <mxPoint x="310" y="380" as="targetPoint" />
          </mxGeometry>
        </mxCell>
        <mxCell id="iBEGzX39Ltn6iugaxpXB-7" value="&lt;font style=&quot;vertical-align: inherit;&quot;&gt;&lt;font style=&quot;vertical-align: inherit;&quot;&gt;recepcionista&lt;/font&gt;&lt;/font&gt;" style="shape=umlActor;verticalLabelPosition=bottom;verticalAlign=top;html=1;outlineConnect=0;" vertex="1" parent="1">
          <mxGeometry x="90" y="270" width="60" height="110" as="geometry" />
        </mxCell>
        <mxCell id="iBEGzX39Ltn6iugaxpXB-12" value="" style="ellipse;whiteSpace=wrap;html=1;" vertex="1" parent="1">
          <mxGeometry x="310" y="230" width="120" height="80" as="geometry" />
        </mxCell>
        <mxCell id="iBEGzX39Ltn6iugaxpXB-13" value="&lt;font style=&quot;vertical-align: inherit;&quot;&gt;&lt;font style=&quot;vertical-align: inherit;&quot;&gt;confirmar reserva&lt;/font&gt;&lt;/font&gt;" style="text;html=1;align=center;verticalAlign=middle;whiteSpace=wrap;rounded=0;" vertex="1" parent="1">
          <mxGeometry x="280" y="210" width="180" height="120" as="geometry" />
        </mxCell>
        <mxCell id="iBEGzX39Ltn6iugaxpXB-14" value="" style="ellipse;whiteSpace=wrap;html=1;" vertex="1" parent="1">
          <mxGeometry x="320" y="340" width="120" height="80" as="geometry" />
        </mxCell>
        <mxCell id="iBEGzX39Ltn6iugaxpXB-15" value="&lt;font style=&quot;vertical-align: inherit;&quot;&gt;&lt;font style=&quot;vertical-align: inherit;&quot;&gt;gerenciar disponibilidade de quartos&lt;/font&gt;&lt;/font&gt;" style="text;html=1;align=center;verticalAlign=middle;whiteSpace=wrap;rounded=0;" vertex="1" parent="1">
          <mxGeometry x="354" y="365" width="60" height="30" as="geometry" />
        </mxCell>
        <mxCell id="iBEGzX39Ltn6iugaxpXB-19" style="edgeStyle=orthogonalEdgeStyle;rounded=0;orthogonalLoop=1;jettySize=auto;html=1;exitX=1;exitY=0.3333333333333333;exitDx=0;exitDy=0;exitPerimeter=0;" edge="1" parent="1" source="iBEGzX39Ltn6iugaxpXB-16" target="iBEGzX39Ltn6iugaxpXB-21">
          <mxGeometry relative="1" as="geometry">
            <mxPoint x="300" y="780" as="targetPoint" />
          </mxGeometry>
        </mxCell>
        <mxCell id="iBEGzX39Ltn6iugaxpXB-20" style="edgeStyle=orthogonalEdgeStyle;rounded=0;orthogonalLoop=1;jettySize=auto;html=1;exitX=1;exitY=1;exitDx=0;exitDy=0;exitPerimeter=0;" edge="1" parent="1" source="iBEGzX39Ltn6iugaxpXB-16" target="iBEGzX39Ltn6iugaxpXB-22">
          <mxGeometry relative="1" as="geometry">
            <mxPoint x="290" y="880" as="targetPoint" />
          </mxGeometry>
        </mxCell>
        <mxCell id="iBEGzX39Ltn6iugaxpXB-16" value="&lt;font style=&quot;vertical-align: inherit;&quot;&gt;&lt;font style=&quot;vertical-align: inherit;&quot;&gt;cliente&lt;/font&gt;&lt;/font&gt;" style="shape=umlActor;verticalLabelPosition=bottom;verticalAlign=top;html=1;outlineConnect=0;" vertex="1" parent="1">
          <mxGeometry x="70" y="505" width="70" height="110" as="geometry" />
        </mxCell>
        <mxCell id="iBEGzX39Ltn6iugaxpXB-21" value="" style="ellipse;whiteSpace=wrap;html=1;" vertex="1" parent="1">
          <mxGeometry x="330" y="490" width="120" height="80" as="geometry" />
        </mxCell>
        <mxCell id="iBEGzX39Ltn6iugaxpXB-22" value="&lt;font style=&quot;vertical-align: inherit;&quot;&gt;&lt;font style=&quot;vertical-align: inherit;&quot;&gt;cancelar reserva&lt;/font&gt;&lt;/font&gt;" style="ellipse;whiteSpace=wrap;html=1;" vertex="1" parent="1">
          <mxGeometry x="324" y="615" width="120" height="80" as="geometry" />
        </mxCell>
        <mxCell id="iBEGzX39Ltn6iugaxpXB-23" value="&lt;font style=&quot;vertical-align: inherit;&quot;&gt;&lt;font style=&quot;vertical-align: inherit;&quot;&gt;&lt;font style=&quot;vertical-align: inherit;&quot;&gt;&lt;font style=&quot;vertical-align: inherit;&quot;&gt;fazer reserva&lt;/font&gt;&lt;/font&gt;&lt;/font&gt;&lt;/font&gt;" style="text;html=1;align=center;verticalAlign=middle;whiteSpace=wrap;rounded=0;" vertex="1" parent="1">
          <mxGeometry x="144" y="430" width="480" height="185" as="geometry" />
        </mxCell>
        <mxCell id="iBEGzX39Ltn6iugaxpXB-26" value="&lt;font style=&quot;vertical-align: inherit;&quot;&gt;&lt;font style=&quot;vertical-align: inherit;&quot;&gt;cliente&lt;/font&gt;&lt;/font&gt;" style="shape=umlActor;verticalLabelPosition=bottom;verticalAlign=top;html=1;outlineConnect=0;" vertex="1" parent="1">
          <mxGeometry x="100" y="890" width="30" height="60" as="geometry" />
        </mxCell>
        <mxCell id="iBEGzX39Ltn6iugaxpXB-28" value="" style="endArrow=none;html=1;rounded=0;" edge="1" parent="1">
          <mxGeometry width="50" height="50" relative="1" as="geometry">
            <mxPoint x="120" y="880" as="sourcePoint" />
            <mxPoint x="170" y="830" as="targetPoint" />
          </mxGeometry>
        </mxCell>
        <mxCell id="iBEGzX39Ltn6iugaxpXB-29" value="" style="endArrow=none;html=1;rounded=0;" edge="1" parent="1">
          <mxGeometry width="50" height="50" relative="1" as="geometry">
            <mxPoint x="150" y="930" as="sourcePoint" />
            <mxPoint x="210" y="880" as="targetPoint" />
          </mxGeometry>
        </mxCell>
        <mxCell id="iBEGzX39Ltn6iugaxpXB-31" value="" style="endArrow=none;html=1;rounded=0;" edge="1" parent="1">
          <mxGeometry width="50" height="50" relative="1" as="geometry">
            <mxPoint x="150" y="970" as="sourcePoint" />
            <mxPoint x="200" y="1060" as="targetPoint" />
          </mxGeometry>
        </mxCell>
        <mxCell id="iBEGzX39Ltn6iugaxpXB-32" value="" style="ellipse;whiteSpace=wrap;html=1;" vertex="1" parent="1">
          <mxGeometry x="160" y="1070" width="120" height="80" as="geometry" />
        </mxCell>
        <mxCell id="iBEGzX39Ltn6iugaxpXB-33" value="&lt;font style=&quot;vertical-align: inherit;&quot;&gt;&lt;font style=&quot;vertical-align: inherit;&quot;&gt;colocar item no carrinho&lt;/font&gt;&lt;/font&gt;" style="ellipse;whiteSpace=wrap;html=1;" vertex="1" parent="1">
          <mxGeometry x="210" y="840" width="120" height="80" as="geometry" />
        </mxCell>
        <mxCell id="iBEGzX39Ltn6iugaxpXB-34" value="&lt;font style=&quot;vertical-align: inherit;&quot;&gt;&lt;font style=&quot;vertical-align: inherit;&quot;&gt;navegar pelo catálogo&lt;/font&gt;&lt;/font&gt;" style="ellipse;whiteSpace=wrap;html=1;" vertex="1" parent="1">
          <mxGeometry x="150" y="750" width="120" height="80" as="geometry" />
        </mxCell>
        <mxCell id="iBEGzX39Ltn6iugaxpXB-36" value="" style="endArrow=none;dashed=1;html=1;dashPattern=1 3;strokeWidth=2;rounded=0;" edge="1" parent="1">
          <mxGeometry width="50" height="50" relative="1" as="geometry">
            <mxPoint x="240" y="1070" as="sourcePoint" />
            <mxPoint x="250" y="1020" as="targetPoint" />
          </mxGeometry>
        </mxCell>
        <mxCell id="iBEGzX39Ltn6iugaxpXB-37" value="" style="endArrow=none;dashed=1;html=1;dashPattern=1 3;strokeWidth=2;rounded=0;" edge="1" parent="1">
          <mxGeometry width="50" height="50" relative="1" as="geometry">
            <mxPoint x="280" y="1115" as="sourcePoint" />
            <mxPoint x="350" y="1040" as="targetPoint" />
          </mxGeometry>
        </mxCell>
        <mxCell id="iBEGzX39Ltn6iugaxpXB-38" value="" style="ellipse;whiteSpace=wrap;html=1;" vertex="1" parent="1">
          <mxGeometry x="200" y="940" width="120" height="80" as="geometry" />
        </mxCell>
        <mxCell id="iBEGzX39Ltn6iugaxpXB-39" value="&lt;font style=&quot;vertical-align: inherit;&quot;&gt;&lt;font style=&quot;vertical-align: inherit;&quot;&gt;preencher dados do cartão de credito&lt;/font&gt;&lt;/font&gt;" style="ellipse;whiteSpace=wrap;html=1;" vertex="1" parent="1">
          <mxGeometry x="324" y="970" width="120" height="80" as="geometry" />
        </mxCell>
        <mxCell id="iBEGzX39Ltn6iugaxpXB-40" value="" style="endArrow=none;dashed=1;html=1;dashPattern=1 3;strokeWidth=2;rounded=0;" edge="1" parent="1">
          <mxGeometry width="50" height="50" relative="1" as="geometry">
            <mxPoint x="450" y="1010" as="sourcePoint" />
            <mxPoint x="510" y="1010" as="targetPoint" />
          </mxGeometry>
        </mxCell>
        <mxCell id="iBEGzX39Ltn6iugaxpXB-41" value="" style="endArrow=none;dashed=1;html=1;dashPattern=1 3;strokeWidth=2;rounded=0;" edge="1" parent="1">
          <mxGeometry width="50" height="50" relative="1" as="geometry">
            <mxPoint x="280" y="1130" as="sourcePoint" />
            <mxPoint x="510" y="1130" as="targetPoint" />
          </mxGeometry>
        </mxCell>
        <mxCell id="iBEGzX39Ltn6iugaxpXB-42" value="&lt;font style=&quot;vertical-align: inherit;&quot;&gt;&lt;font style=&quot;vertical-align: inherit;&quot;&gt;faturar compra&lt;/font&gt;&lt;/font&gt;" style="ellipse;whiteSpace=wrap;html=1;" vertex="1" parent="1">
          <mxGeometry x="504" y="1080" width="120" height="80" as="geometry" />
        </mxCell>
        <mxCell id="iBEGzX39Ltn6iugaxpXB-43" value="&lt;font style=&quot;vertical-align: inherit;&quot;&gt;&lt;font style=&quot;vertical-align: inherit;&quot;&gt;verificar dados do cartão de credito&lt;/font&gt;&lt;/font&gt;" style="ellipse;whiteSpace=wrap;html=1;" vertex="1" parent="1">
          <mxGeometry x="504" y="960" width="120" height="80" as="geometry" />
        </mxCell>
        <mxCell id="iBEGzX39Ltn6iugaxpXB-44" value="&lt;font style=&quot;vertical-align: inherit;&quot;&gt;&lt;font style=&quot;vertical-align: inherit;&quot;&gt;sistema&lt;/font&gt;&lt;/font&gt;" style="shape=umlActor;verticalLabelPosition=bottom;verticalAlign=top;html=1;outlineConnect=0;" vertex="1" parent="1">
          <mxGeometry x="770" y="1000" width="30" height="60" as="geometry" />
        </mxCell>
        <mxCell id="iBEGzX39Ltn6iugaxpXB-45" value="" style="endArrow=none;html=1;rounded=0;exitX=0.667;exitY=0;exitDx=0;exitDy=0;exitPerimeter=0;" edge="1" parent="1" source="iBEGzX39Ltn6iugaxpXB-46">
          <mxGeometry width="50" height="50" relative="1" as="geometry">
            <mxPoint x="760" y="1120" as="sourcePoint" />
            <mxPoint x="780" y="1090" as="targetPoint" />
          </mxGeometry>
        </mxCell>
        <mxCell id="iBEGzX39Ltn6iugaxpXB-46" value="&lt;font style=&quot;vertical-align: inherit;&quot;&gt;&lt;font style=&quot;vertical-align: inherit;&quot;&gt;enviar e-mail&lt;/font&gt;&lt;/font&gt;" style="ellipse;whiteSpace=wrap;html=1;" vertex="1" parent="1">
          <mxGeometry x="670" y="1140" width="120" height="80" as="geometry" />
        </mxCell>
        <mxCell id="iBEGzX39Ltn6iugaxpXB-47" value="" style="endArrow=none;html=1;rounded=0;" edge="1" parent="1">
          <mxGeometry width="50" height="50" relative="1" as="geometry">
            <mxPoint x="640" y="1000" as="sourcePoint" />
            <mxPoint x="740" y="1040" as="targetPoint" />
          </mxGeometry>
        </mxCell>
        <mxCell id="iBEGzX39Ltn6iugaxpXB-49" value="" style="endArrow=none;html=1;rounded=0;" edge="1" parent="1">
          <mxGeometry width="50" height="50" relative="1" as="geometry">
            <mxPoint x="640" y="1120" as="sourcePoint" />
            <mxPoint x="750" y="1080" as="targetPoint" />
          </mxGeometry>
        </mxCell>
        <mxCell id="iBEGzX39Ltn6iugaxpXB-50" value="&lt;font style=&quot;vertical-align: inherit;&quot;&gt;&lt;font style=&quot;vertical-align: inherit;&quot;&gt;informar endereço&lt;/font&gt;&lt;/font&gt;" style="text;html=1;align=center;verticalAlign=middle;whiteSpace=wrap;rounded=0;" vertex="1" parent="1">
          <mxGeometry x="230" y="965" width="60" height="30" as="geometry" />
        </mxCell>
        <mxCell id="iBEGzX39Ltn6iugaxpXB-51" value="&lt;font style=&quot;vertical-align: inherit;&quot;&gt;&lt;font style=&quot;vertical-align: inherit;&quot;&gt;finalizar compra&lt;/font&gt;&lt;/font&gt;" style="text;html=1;align=center;verticalAlign=middle;whiteSpace=wrap;rounded=0;" vertex="1" parent="1">
          <mxGeometry x="190" y="1095" width="60" height="30" as="geometry" />
        </mxCell>
        <mxCell id="iBEGzX39Ltn6iugaxpXB-61" value="Actor" style="shape=umlActor;verticalLabelPosition=bottom;verticalAlign=top;html=1;outlineConnect=0;" vertex="1" parent="1">
          <mxGeometry x="50" y="2680" width="30" height="60" as="geometry" />
        </mxCell>
        <mxCell id="iBEGzX39Ltn6iugaxpXB-63" value="" style="endArrow=classic;html=1;rounded=0;" edge="1" parent="1">
          <mxGeometry width="50" height="50" relative="1" as="geometry">
            <mxPoint x="80" y="2670" as="sourcePoint" />
            <mxPoint x="180" y="2550" as="targetPoint" />
          </mxGeometry>
        </mxCell>
        <mxCell id="iBEGzX39Ltn6iugaxpXB-65" value="" style="endArrow=classic;html=1;rounded=0;" edge="1" parent="1">
          <mxGeometry width="50" height="50" relative="1" as="geometry">
            <mxPoint x="95" y="2690" as="sourcePoint" />
            <mxPoint x="210" y="2640" as="targetPoint" />
          </mxGeometry>
        </mxCell>
        <mxCell id="iBEGzX39Ltn6iugaxpXB-66" value="" style="endArrow=classic;html=1;rounded=0;" edge="1" parent="1">
          <mxGeometry width="50" height="50" relative="1" as="geometry">
            <mxPoint x="90" y="2710" as="sourcePoint" />
            <mxPoint x="210" y="2730" as="targetPoint" />
          </mxGeometry>
        </mxCell>
        <mxCell id="iBEGzX39Ltn6iugaxpXB-67" value="" style="endArrow=classic;html=1;rounded=0;" edge="1" parent="1" target="iBEGzX39Ltn6iugaxpXB-74">
          <mxGeometry width="50" height="50" relative="1" as="geometry">
            <mxPoint x="90" y="2750" as="sourcePoint" />
            <mxPoint x="210" y="2820" as="targetPoint" />
          </mxGeometry>
        </mxCell>
        <mxCell id="iBEGzX39Ltn6iugaxpXB-68" value="" style="endArrow=classic;html=1;rounded=0;" edge="1" parent="1">
          <mxGeometry width="50" height="50" relative="1" as="geometry">
            <mxPoint x="60" y="2770" as="sourcePoint" />
            <mxPoint x="210" y="2950" as="targetPoint" />
          </mxGeometry>
        </mxCell>
        <mxCell id="iBEGzX39Ltn6iugaxpXB-71" value="" style="ellipse;whiteSpace=wrap;html=1;" vertex="1" parent="1">
          <mxGeometry x="160" y="2480" width="110" height="70" as="geometry" />
        </mxCell>
        <mxCell id="iBEGzX39Ltn6iugaxpXB-72" value="" style="ellipse;whiteSpace=wrap;html=1;" vertex="1" parent="1">
          <mxGeometry x="200" y="2580" width="120" height="80" as="geometry" />
        </mxCell>
        <mxCell id="iBEGzX39Ltn6iugaxpXB-73" value="" style="ellipse;whiteSpace=wrap;html=1;" vertex="1" parent="1">
          <mxGeometry x="204" y="2680" width="120" height="80" as="geometry" />
        </mxCell>
        <mxCell id="iBEGzX39Ltn6iugaxpXB-74" value="" style="ellipse;whiteSpace=wrap;html=1;" vertex="1" parent="1">
          <mxGeometry x="210" y="2790" width="120" height="80" as="geometry" />
        </mxCell>
        <mxCell id="iBEGzX39Ltn6iugaxpXB-75" value="" style="ellipse;whiteSpace=wrap;html=1;" vertex="1" parent="1">
          <mxGeometry x="200" y="2940" width="120" height="80" as="geometry" />
        </mxCell>
        <mxCell id="iBEGzX39Ltn6iugaxpXB-76" value="Actor" style="shape=umlActor;verticalLabelPosition=bottom;verticalAlign=top;html=1;outlineConnect=0;" vertex="1" parent="1">
          <mxGeometry x="50" y="2900" width="30" height="60" as="geometry" />
        </mxCell>
        <mxCell id="iBEGzX39Ltn6iugaxpXB-77" value="" style="endArrow=classic;html=1;rounded=0;" edge="1" parent="1" target="iBEGzX39Ltn6iugaxpXB-73">
          <mxGeometry width="50" height="50" relative="1" as="geometry">
            <mxPoint x="80" y="2900" as="sourcePoint" />
            <mxPoint x="210" y="2770" as="targetPoint" />
          </mxGeometry>
        </mxCell>
      </root>
    </mxGraphModel>
  </diagram>
</mxfile>
